<svg width="126" height="126" fill="none" xmlns="http://www.w3.org/2000/svg">
<path fill-rule="evenodd" clip-rule="evenodd" d="M80.965 23.059 65.178 5.622c-5.35-5.91-15.02-4.301-18.17 3.022l-9.291 21.609a14.371 14.371 0 0 1-7.322 7.435L8.934 47.314C1.66 50.576.202 60.271 6.194 65.53l17.679 15.514a14.371 14.371 0 0 1 4.809 9.26l2.523 23.387c.855 7.925 9.624 12.308 16.476 8.234l20.218-12.019a14.369 14.369 0 0 1 10.294-1.713l23.021 4.828c7.802 1.636 14.68-5.35 12.923-13.125l-5.184-22.944a14.375 14.375 0 0 1 1.553-10.319l11.705-20.402c3.966-6.914-.552-15.614-8.49-16.346l-23.422-2.16a14.372 14.372 0 0 1-9.334-4.665ZM66.448 4.472C60.261-2.362 49.077-.502 45.435 7.968l-9.292 21.608a12.659 12.659 0 0 1-6.449 6.55L8.233 45.75C-.18 49.524-1.866 60.735 5.063 66.816l17.68 15.515a12.658 12.658 0 0 1 4.236 8.156l2.523 23.386c.989 9.166 11.13 14.235 19.054 9.524l20.219-12.02a12.658 12.658 0 0 1 9.066-1.508l23.021 4.827c9.023 1.892 16.977-6.187 14.946-15.179l-5.184-22.943a12.661 12.661 0 0 1 1.367-9.09l11.705-20.402c4.588-7.996-.637-18.058-9.817-18.904l-23.422-2.16a12.659 12.659 0 0 1-8.222-4.109L66.448 4.472Z" fill="#fff"/>
</svg>
